<mxfile host="app.diagrams.net" agent="Mozilla/5.0 (Windows NT 10.0; Win64; x64; rv:139.0) Gecko/20100101 Firefox/139.0" version="27.1.5">
  <diagram name="Página-1" id="LkcCV7f9u7HL4xhk9SLj">
    <mxGraphModel dx="849" dy="508" grid="1" gridSize="10" guides="1" tooltips="1" connect="1" arrows="1" fold="1" page="1" pageScale="1" pageWidth="827" pageHeight="1169" math="0" shadow="0">
      <root>
        <mxCell id="0" />
        <mxCell id="1" parent="0" />
        <mxCell id="2_fk619kPu_Vfxk6sy3o-27" style="edgeStyle=orthogonalEdgeStyle;rounded=0;orthogonalLoop=1;jettySize=auto;html=1;entryX=0;entryY=0.5;entryDx=0;entryDy=0;" edge="1" parent="1" target="2_fk619kPu_Vfxk6sy3o-20">
          <mxGeometry relative="1" as="geometry">
            <mxPoint x="40" y="270" as="sourcePoint" />
            <Array as="points">
              <mxPoint x="20" y="270" />
              <mxPoint x="20" y="170" />
            </Array>
          </mxGeometry>
        </mxCell>
        <mxCell id="2_fk619kPu_Vfxk6sy3o-28" style="edgeStyle=orthogonalEdgeStyle;rounded=0;orthogonalLoop=1;jettySize=auto;html=1;entryX=0;entryY=0.5;entryDx=0;entryDy=0;" edge="1" parent="1" source="2_fk619kPu_Vfxk6sy3o-2" target="2_fk619kPu_Vfxk6sy3o-21">
          <mxGeometry relative="1" as="geometry">
            <mxPoint x="40" y="270" as="sourcePoint" />
            <Array as="points">
              <mxPoint x="20" y="270" />
              <mxPoint x="20" y="70" />
            </Array>
          </mxGeometry>
        </mxCell>
        <mxCell id="2_fk619kPu_Vfxk6sy3o-32" style="edgeStyle=orthogonalEdgeStyle;rounded=0;orthogonalLoop=1;jettySize=auto;html=1;" edge="1" parent="1" source="2_fk619kPu_Vfxk6sy3o-2" target="2_fk619kPu_Vfxk6sy3o-31">
          <mxGeometry relative="1" as="geometry" />
        </mxCell>
        <mxCell id="2_fk619kPu_Vfxk6sy3o-2" value="&lt;div&gt;Atendente&lt;/div&gt;&lt;div&gt;&lt;br&gt;&lt;/div&gt;" style="shape=umlActor;verticalLabelPosition=bottom;verticalAlign=top;html=1;outlineConnect=0;" vertex="1" parent="1">
          <mxGeometry x="41" y="240" width="31" height="60" as="geometry" />
        </mxCell>
        <mxCell id="2_fk619kPu_Vfxk6sy3o-29" style="edgeStyle=orthogonalEdgeStyle;rounded=0;orthogonalLoop=1;jettySize=auto;html=1;entryX=0;entryY=0.5;entryDx=0;entryDy=0;" edge="1" parent="1" source="2_fk619kPu_Vfxk6sy3o-3" target="2_fk619kPu_Vfxk6sy3o-18">
          <mxGeometry relative="1" as="geometry">
            <mxPoint x="30" y="350" as="sourcePoint" />
            <Array as="points">
              <mxPoint x="20" y="370" />
              <mxPoint x="20" y="470" />
            </Array>
          </mxGeometry>
        </mxCell>
        <mxCell id="2_fk619kPu_Vfxk6sy3o-30" style="edgeStyle=orthogonalEdgeStyle;rounded=0;orthogonalLoop=1;jettySize=auto;html=1;entryX=0;entryY=0.5;entryDx=0;entryDy=0;" edge="1" parent="1" source="2_fk619kPu_Vfxk6sy3o-3" target="2_fk619kPu_Vfxk6sy3o-19">
          <mxGeometry relative="1" as="geometry">
            <mxPoint x="30" y="350" as="sourcePoint" />
            <Array as="points">
              <mxPoint x="20" y="370" />
              <mxPoint x="20" y="570" />
            </Array>
          </mxGeometry>
        </mxCell>
        <mxCell id="2_fk619kPu_Vfxk6sy3o-33" style="edgeStyle=orthogonalEdgeStyle;rounded=0;orthogonalLoop=1;jettySize=auto;html=1;" edge="1" parent="1" source="2_fk619kPu_Vfxk6sy3o-3" target="2_fk619kPu_Vfxk6sy3o-31">
          <mxGeometry relative="1" as="geometry" />
        </mxCell>
        <mxCell id="2_fk619kPu_Vfxk6sy3o-3" value="Solicitante" style="shape=umlActor;verticalLabelPosition=bottom;verticalAlign=top;html=1;outlineConnect=0;" vertex="1" parent="1">
          <mxGeometry x="42" y="340" width="30" height="60" as="geometry" />
        </mxCell>
        <mxCell id="2_fk619kPu_Vfxk6sy3o-10" value="&lt;div&gt;Cadastro&lt;/div&gt;&lt;div&gt;&lt;br&gt;&lt;/div&gt;" style="ellipse;whiteSpace=wrap;html=1;" vertex="1" parent="1">
          <mxGeometry x="260" y="230" width="120" height="80" as="geometry" />
        </mxCell>
        <mxCell id="2_fk619kPu_Vfxk6sy3o-12" value="&lt;div&gt;Log - in&lt;/div&gt;" style="ellipse;whiteSpace=wrap;html=1;" vertex="1" parent="1">
          <mxGeometry x="260" y="330" width="120" height="80" as="geometry" />
        </mxCell>
        <mxCell id="2_fk619kPu_Vfxk6sy3o-18" value="&lt;div&gt;Abrir Ticket&lt;/div&gt;" style="ellipse;whiteSpace=wrap;html=1;" vertex="1" parent="1">
          <mxGeometry x="120" y="430" width="120" height="80" as="geometry" />
        </mxCell>
        <mxCell id="2_fk619kPu_Vfxk6sy3o-19" value="&lt;div&gt;Visualizar Meus Tickets&lt;/div&gt;" style="ellipse;whiteSpace=wrap;html=1;" vertex="1" parent="1">
          <mxGeometry x="120" y="530" width="120" height="80" as="geometry" />
        </mxCell>
        <mxCell id="2_fk619kPu_Vfxk6sy3o-20" value="&lt;div&gt;Visualizar Tickets Departamento&lt;/div&gt;&lt;div&gt;&lt;br&gt;&lt;/div&gt;" style="ellipse;whiteSpace=wrap;html=1;" vertex="1" parent="1">
          <mxGeometry x="120" y="130" width="120" height="80" as="geometry" />
        </mxCell>
        <mxCell id="2_fk619kPu_Vfxk6sy3o-21" value="&lt;div&gt;Atender Ticket&lt;/div&gt;" style="ellipse;whiteSpace=wrap;html=1;" vertex="1" parent="1">
          <mxGeometry x="120" y="30" width="120" height="80" as="geometry" />
        </mxCell>
        <mxCell id="2_fk619kPu_Vfxk6sy3o-34" style="edgeStyle=orthogonalEdgeStyle;rounded=0;orthogonalLoop=1;jettySize=auto;html=1;entryX=0;entryY=0.5;entryDx=0;entryDy=0;" edge="1" parent="1" source="2_fk619kPu_Vfxk6sy3o-31" target="2_fk619kPu_Vfxk6sy3o-10">
          <mxGeometry relative="1" as="geometry" />
        </mxCell>
        <mxCell id="2_fk619kPu_Vfxk6sy3o-35" style="edgeStyle=orthogonalEdgeStyle;rounded=0;orthogonalLoop=1;jettySize=auto;html=1;entryX=0;entryY=0.5;entryDx=0;entryDy=0;" edge="1" parent="1" source="2_fk619kPu_Vfxk6sy3o-31" target="2_fk619kPu_Vfxk6sy3o-12">
          <mxGeometry relative="1" as="geometry" />
        </mxCell>
        <mxCell id="2_fk619kPu_Vfxk6sy3o-31" value="&lt;div&gt;Usuário&lt;/div&gt;" style="shape=umlActor;verticalLabelPosition=bottom;verticalAlign=top;html=1;outlineConnect=0;" vertex="1" parent="1">
          <mxGeometry x="150" y="290" width="30" height="60" as="geometry" />
        </mxCell>
      </root>
    </mxGraphModel>
  </diagram>
</mxfile>
